<svg xmlns="http://www.w3.org/2000/svg" viewBox="0 0 520 180" role="img" aria-labelledby="title desc">
  <title id="title">تيانيل</title>
  <desc id="desc">شعار متجر تيانيل النسائي</desc>
  <defs>
    <linearGradient id="mark" x1="0" y1="0" x2="1" y2="1">
      <stop offset="0" stop-color="#F2B6C6"/>
      <stop offset="0.54" stop-color="#D989A3"/>
      <stop offset="1" stop-color="#B88A5A"/>
    </linearGradient>
    <filter id="soft" x="-20%" y="-20%" width="140%" height="140%">
      <feDropShadow dx="0" dy="10" stdDeviation="11" flood-color="#4B213F" flood-opacity=".16"/>
    </filter>
  </defs>
  <rect x="15" y="15" width="490" height="150" rx="34" fill="#FFF4EF"/>
  <g filter="url(#soft)">
    <path d="M127 47c22 0 40 17 40 39 0 32-37 53-40 55-3-2-40-23-40-55 0-22 18-39 40-39Z" fill="url(#mark)"/>
    <path d="M127 59c15 0 27 12 27 27 0 20-21 36-27 40-6-4-27-20-27-40 0-15 12-27 27-27Z" fill="#FFF4EF" opacity=".58"/>
    <path d="M108 79c11 2 19 11 19 22 0-11 8-20 19-22" fill="none" stroke="#4B213F" stroke-width="5" stroke-linecap="round"/>
  </g>
  <text x="190" y="92" fill="#4B213F" font-family="Tajawal, Almarai, Arial, sans-serif" font-size="52" font-weight="800">تيانيل</text>
  <text x="193" y="126" fill="#9B6C79" font-family="Tajawal, Almarai, Arial, sans-serif" font-size="18" font-weight="600" letter-spacing="0">اختيارات نسائية فاخرة</text>
</svg>
